<svg xmlns="http://www.w3.org/2000/svg" xmlns:xlink="http://www.w3.org/1999/xlink" width="480" zoomAndPan="magnify" viewBox="0 0 360 359.999987" height="480" preserveAspectRatio="xMidYMid meet" version="1.0"><defs><clipPath id="0cea2913fa"><path d="M 108 131 L 252 131 L 252 196.132812 L 108 196.132812 Z M 108 131 " clip-rule="nonzero"/></clipPath><clipPath id="25c05027a2"><path d="M 108 159 L 252 159 L 252 196.132812 L 108 196.132812 Z M 108 159 " clip-rule="nonzero"/></clipPath><clipPath id="0ec6b93845"><path d="M 57.957031 7 L 301.707031 7 L 301.707031 353 L 57.957031 353 Z M 57.957031 7 " clip-rule="nonzero"/></clipPath></defs><g clip-path="url(#0cea2913fa)"><path fill="#4ec9f5" d="M 238.976562 137.351562 C 236.871094 138.753906 235.101562 140.691406 232.792969 141.734375 C 225.179688 145.175781 218.855469 133.285156 212.933594 136.226562 C 211.117188 137.128906 209.878906 138.855469 208.59375 140.429688 C 207.308594 142 205.75 143.5625 203.746094 143.882812 C 200.171875 144.457031 197.152344 140.921875 193.542969 140.65625 C 188.757812 140.300781 184.914062 145.695312 180.140625 145.207031 C 175.613281 144.746094 173.464844 139.582031 170.367188 136.246094 C 159.820312 124.875 147.820312 137.144531 138.347656 141.960938 C 133.894531 144.222656 128.492188 144.519531 123.8125 142.777344 C 123.652344 142.714844 123.496094 142.65625 123.335938 142.589844 C 116.105469 139.648438 111.144531 139.355469 108.136719 143.484375 L 108.136719 196.109375 L 251.863281 196.109375 L 251.863281 135.332031 C 247.390625 134.375 242.273438 135.152344 238.976562 137.351562 Z M 238.976562 137.351562 " fill-opacity="1" fill-rule="nonzero"/></g><path fill="#b1e3fa" d="M 238.976562 137.351562 C 236.871094 138.753906 235.101562 140.691406 232.792969 141.734375 C 225.179688 145.175781 218.855469 133.285156 212.933594 136.226562 C 211.117188 137.128906 209.878906 138.855469 208.59375 140.429688 C 207.308594 142 205.75 143.5625 203.746094 143.882812 C 200.171875 144.457031 197.152344 140.921875 193.542969 140.65625 C 188.757812 140.300781 184.914062 145.695312 180.140625 145.207031 C 175.613281 144.746094 173.464844 139.582031 170.367188 136.246094 C 159.820312 124.875 147.820312 137.144531 138.347656 141.960938 C 133.894531 144.222656 128.492188 144.519531 123.8125 142.777344 C 123.652344 142.714844 123.496094 142.65625 123.335938 142.589844 C 116.105469 139.648438 111.144531 139.355469 108.136719 143.484375 L 108.136719 151.242188 C 110.765625 149.171875 115.742188 147.558594 117.472656 149.730469 C 118.582031 151.121094 118.183594 155.207031 120.53125 155.09375 C 121.503906 155.046875 122.332031 154.414062 123.128906 153.847656 C 123.921875 153.285156 124.847656 152.742188 125.808594 152.898438 C 126.878906 153.074219 127.621094 154.066406 128.054688 155.0625 C 133.5625 167.683594 142.160156 152.441406 147.21875 148.542969 C 156.023438 141.761719 158.5625 154.949219 166.132812 153.53125 C 170.554688 152.703125 171.933594 147.71875 176.945312 149.960938 C 180.160156 151.398438 184.507812 155.167969 188.277344 153.707031 C 190.800781 152.726562 193.441406 149.746094 196.464844 150.816406 C 198.925781 151.6875 199.421875 155.222656 201.339844 156.832031 C 202.15625 157.515625 203.285156 157.917969 204.296875 157.601562 C 206.820312 156.816406 206.660156 152.707031 209.019531 151.515625 C 210.160156 150.941406 211.652344 151.207031 212.65625 150.414062 C 213.84375 149.472656 213.667969 147.65625 214.15625 146.21875 C 214.855469 144.144531 217.226562 142.910156 219.351562 143.292969 C 222.003906 143.773438 223.246094 146.558594 224.609375 148.597656 C 228.648438 154.398438 234.226562 149.886719 238.09375 147.050781 C 241.113281 144.835938 245.121094 144.027344 248.761719 144.890625 C 249.898438 145.164062 250.929688 145.546875 251.863281 146.027344 L 251.863281 135.332031 C 247.390625 134.375 242.273438 135.152344 238.976562 137.351562 Z M 238.976562 137.351562 " fill-opacity="1" fill-rule="nonzero"/><g clip-path="url(#25c05027a2)"><path fill="#00b8f1" d="M 243.15625 166.003906 C 237.464844 165.730469 231.945312 163.214844 226.273438 163.746094 C 217.109375 164.601562 210.164062 173.074219 201.066406 174.472656 C 193.382812 175.652344 185.988281 171.574219 179.117188 167.925781 C 172.246094 164.28125 164.289062 160.855469 156.921875 163.347656 C 153.015625 164.664062 149.839844 167.496094 146.292969 169.589844 C 135.984375 175.683594 121.566406 174.75 113.078125 166.296875 C 111.011719 164.246094 109.347656 161.804688 108.136719 159.15625 L 108.136719 196.109375 L 251.863281 196.109375 L 251.863281 164.46875 C 248.9375 165.582031 245.871094 166.132812 243.15625 166.003906 Z M 243.15625 166.003906 " fill-opacity="1" fill-rule="nonzero"/></g><path fill="#4ec9f5" d="M 238.09375 147.050781 C 234.226562 149.886719 228.648438 154.398438 224.609375 148.597656 C 223.246094 146.558594 222.003906 143.773438 219.351562 143.292969 C 217.226562 142.910156 214.855469 144.144531 214.15625 146.21875 C 213.667969 147.65625 213.84375 149.472656 212.65625 150.414062 C 211.652344 151.207031 210.160156 150.941406 209.019531 151.515625 C 206.660156 152.707031 206.820312 156.816406 204.296875 157.601562 C 203.285156 157.917969 202.15625 157.515625 201.339844 156.832031 C 199.421875 155.222656 198.925781 151.6875 196.464844 150.816406 C 193.441406 149.746094 190.800781 152.726562 188.277344 153.707031 C 184.507812 155.167969 180.160156 151.398438 176.945312 149.960938 C 171.933594 147.71875 170.554688 152.703125 166.132812 153.53125 C 158.5625 154.949219 156.023438 141.761719 147.21875 148.542969 C 142.160156 152.441406 133.5625 167.683594 128.054688 155.0625 C 127.621094 154.066406 126.878906 153.074219 125.808594 152.898438 C 124.847656 152.742188 123.921875 153.285156 123.128906 153.847656 C 122.332031 154.414062 121.503906 155.046875 120.53125 155.09375 C 118.183594 155.207031 118.582031 151.121094 117.472656 149.730469 C 115.742188 147.558594 110.765625 149.171875 108.136719 151.242188 L 108.136719 159.15625 C 109.347656 161.804688 111.011719 164.246094 113.078125 166.296875 C 121.566406 174.75 135.984375 175.683594 146.292969 169.589844 C 149.839844 167.496094 153.015625 164.664062 156.921875 163.347656 C 164.289062 160.855469 172.246094 164.28125 179.117188 167.925781 C 185.988281 171.574219 193.382812 175.652344 201.066406 174.472656 C 210.164062 173.074219 217.109375 164.601562 226.273438 163.746094 C 231.945312 163.214844 237.464844 165.730469 243.15625 166.003906 C 245.871094 166.132812 248.9375 165.582031 251.863281 164.46875 L 251.863281 146.027344 C 250.929688 145.546875 249.898438 145.164062 248.761719 144.890625 C 245.121094 144.027344 241.113281 144.835938 238.09375 147.050781 Z M 238.09375 147.050781 " fill-opacity="1" fill-rule="nonzero"/><g clip-path="url(#0ec6b93845)"><path fill="#006f91" d="M 179.886719 190.234375 C 145.355469 190.234375 116.230469 161.113281 116.230469 126.582031 C 116.230469 90.980469 145.355469 62.925781 179.886719 62.925781 C 215.484375 62.925781 243.539062 92.050781 243.539062 126.582031 C 243.539062 161.113281 214.417969 190.234375 179.886719 190.234375 Z M 179.886719 7.890625 C 112.992188 7.890625 57.957031 62.925781 57.957031 129.820312 C 57.957031 193.472656 166.929688 342.386719 171.238281 347.792969 C 173.40625 351.003906 176.644531 352.101562 179.886719 352.101562 C 183.125 352.101562 186.363281 351.003906 188.53125 347.792969 C 192.839844 341.316406 301.8125 193.472656 301.8125 129.820312 C 301.8125 62.925781 246.777344 7.890625 179.886719 7.890625 " fill-opacity="1" fill-rule="nonzero"/></g></svg>